<?xml version="1.0" standalone="no"?>
<!DOCTYPE svg PUBLIC "-//W3C//DTD SVG 20010904//EN"
 "http://www.w3.org/TR/2001/REC-SVG-20010904/DTD/svg10.dtd">
<svg version="1.0" xmlns="http://www.w3.org/2000/svg"
 width="147.000000pt" height="150.000000pt" viewBox="0 0 147.000000 150.000000"
 preserveAspectRatio="xMidYMid meet">
<metadata>
Created by potrace 1.16, written by Peter Selinger 2001-2019
</metadata>
<g transform="translate(0.000000,150.000000) scale(0.100000,-0.100000)"
fill="#000000" stroke="none">
<path d="M496 1464 c-11 -30 -6 -105 10 -137 9 -18 28 -44 42 -59 l26 -28 -19
-37 c-10 -21 -20 -70 -23 -109 -3 -57 0 -80 16 -117 l21 -47 -22 11 c-101 52
-241 214 -253 292 l-7 37 -55 0 -55 0 7 -46 c3 -25 21 -74 38 -107 41 -76 171
-208 257 -258 l61 -37 -97 -7 c-166 -12 -333 -47 -371 -78 -10 -8 -6 -17 19
-43 30 -31 33 -31 63 -19 57 24 195 45 302 46 58 0 107 -1 108 -3 2 -1 6 -24
10 -49 6 -44 5 -47 -18 -53 -46 -11 -175 -106 -242 -179 -71 -76 -118 -161
-129 -234 l-7 -43 55 0 54 0 7 39 c11 70 105 188 208 262 l26 19 -19 -50 c-23
-61 -25 -157 -4 -226 17 -60 73 -127 126 -154 82 -42 198 -16 259 58 34 41 70
145 70 201 0 35 -18 114 -35 155 -8 19 -7 19 22 -2 106 -75 206 -197 219 -268
6 -34 7 -34 59 -34 l54 0 -6 38 c-10 72 -58 157 -134 237 -72 76 -199 169
-245 181 -21 6 -23 10 -17 53 3 25 11 50 17 54 13 10 183 1 275 -14 36 -5 89
-18 118 -28 l52 -18 26 27 c33 35 32 44 -12 63 -62 28 -160 46 -307 59 l-138
11 38 20 c104 53 245 191 290 284 15 29 29 73 32 98 l5 45 -50 0 -49 0 -11
-43 c-22 -81 -144 -216 -251 -280 l-30 -17 19 39 c26 55 26 170 -1 229 l-20
44 34 40 c39 45 60 113 50 164 -7 38 -16 41 -68 19 -31 -13 -36 -20 -36 -48 0
-21 -10 -45 -28 -66 -26 -32 -30 -33 -102 -33 -73 0 -74 0 -108 37 -27 29 -33
43 -29 65 6 25 2 29 -36 44 -52 20 -53 20 -61 0z"/>
</g>
</svg>
