<svg version="1.2" baseProfile="tiny-ps" xmlns="http://www.w3.org/2000/svg" viewBox="0 0 512 512" width="128" height="128">
	<title>image-svg</title>
	<style>
		tspan { white-space:pre }
		.shp0 { fill: #2d2d30;stroke: #000000;stroke-linejoin:round;stroke-width: 4 } 
	</style>
	<path fill-rule="evenodd" class="shp0" d="M460.04 4.88C486.05 4.88 507.12 25.96 507.12 51.96L507.12 460.04C507.12 486.04 486.05 507.12 460.04 507.12L51.96 507.12C25.97 507.12 4.88 486.04 4.88 460.04L4.88 51.96C4.88 25.96 25.97 4.88 51.96 4.88L460.04 4.88ZM51.96 36.27C43.32 36.27 36.27 43.31 36.27 51.96L36.27 373.71L89.41 373.71L192.79 162.71C195.3 157.57 200.42 154.2 206.14 153.93C211.78 153.73 217.27 156.53 220.26 161.39L305.14 299.58L341.01 254.59C344.38 250.37 349.73 248.19 355.04 248.77C360.42 249.39 365.1 252.72 367.43 257.59L423.04 373.71L475.73 373.71L475.73 51.96C475.73 43.31 468.7 36.27 460.04 36.27L51.96 36.27ZM124.4 373.64L388.21 373.64L349.94 293.74L315.75 336.64C312.56 340.63 307.72 342.84 302.52 342.52C297.41 342.21 292.77 339.43 290.1 335.07L208.44 202.12L124.4 373.64ZM460.04 475.73C468.7 475.73 475.73 468.69 475.73 460.04L475.73 405.1L36.27 405.1L36.27 460.04C36.27 468.69 43.32 475.73 51.96 475.73L460.04 475.73ZM303.12 146.13C303.12 111.46 331.23 83.35 365.9 83.35C400.57 83.35 428.68 111.46 428.68 146.13C428.68 180.8 400.57 208.91 365.9 208.91C331.23 208.91 303.12 180.8 303.12 146.13ZM334.51 146.13C334.51 163.44 348.58 177.52 365.9 177.52C383.2 177.52 397.29 163.44 397.29 146.13C397.29 128.82 383.2 114.74 365.9 114.74C348.58 114.74 334.51 128.82 334.51 146.13Z" />
</svg>